<svg id="Capa_1" enable-background="new 0 0 512 512" height="512" viewBox="0 0 512 512" width="512" xmlns="http://www.w3.org/2000/svg"><g><g><path d="m272.671 53.592-16.671 45.162-64.133 24.921c-5.97-40.302 12.52-82.086 46.372-111.985 5.581-2.79 11.671-4.19 17.761-4.19z" fill="#b18cd9"/><path d="m238.239 11.69c-21.831 33.352-37.492 71.513-46.372 111.985l-23.821 9.26-124.485-5.36c3.15-4.14 7.13-7.691 11.78-10.381l180.768-104.364c.7-.4 1.41-.78 2.13-1.14z" fill="#a57cd2"/><path d="m117.474 304.713-24.685 52.216-52.729 21.997c-3.014-5.696-4.608-12.051-4.61-18.551v-208.729c0-5.54 1.17-10.931 3.32-15.861l58.232 68.533z" fill="#a57cd2"/><path d="m251.69 504.271c-5.479-.594-10.772-2.298-15.581-5.08l-180.768-104.364c-6.61-3.81-11.83-9.381-15.281-15.901l77.413-74.213 74.318 74.213z" fill="#b18cd9"/><path d="m468.439 127.575h-106.22l-106.219-28.821v-91.254c6.87 0 13.741 1.78 19.891 5.33l180.768 104.364c4.65 2.691 8.63 6.241 11.78 10.381z" fill="#bd9cde"/><path d="m471.929 378.916c-3.43 6.61-8.82 12.19-15.271 15.911l-148.616 85.803c-19.461-.68-25.821-15.242-25.821-25.001l34.552-76.703 77.753-74.213 44.422 19.911z" fill="#b18cd9"/><path d="m308.042 480.63-32.151 18.561c-4.81 2.77-10.09 4.51-15.581 5.08l21.911-48.642c8.081 8.62 16.681 16.971 25.821 25.001z" fill="#a57cd2"/><path d="m476.549 151.646v208.729c0 6.58-1.63 12.921-4.62 18.541l-77.403-74.203 23.358-100.394 55.335-68.513c2.15 4.93 3.33 10.3 3.33 15.84z" fill="#bd9cde"/><path d="m394.526 304.713-134.216 27.591-58.093-11.22c-40.358-45.777-42.372-107.534-16.801-157.707l70.584-64.623 90.294 91.054z" fill="#fbf198"/><path d="m202.218 321.083-84.744-16.371 50.572-125.435 17.371-15.901c-5.55 51.813-.34 105.975 16.801 157.707z" fill="#fad989"/><path d="m473.219 135.796c0 .01-78.693 168.917-78.693 168.917l-138.526-205.959 212.439 28.821c1.908 2.544 3.532 5.3 4.78 8.221z" fill="#83deff"/><path d="m394.526 304.713-105.945 157.526c-63.485-25.696-98.246-101.877-91.364-157.527h197.309z" fill="#83deff"/><path d="m288.581 462.239-28.271 42.032c-2.86.3-5.75.31-8.62 0l-134.216-199.558h79.743c15.951 56.842 45.892 111.405 91.364 157.526z" fill="#2ecefb"/><path d="m256 98.754-72.693 108.075c-17.379-32.111-9.613-75.747 12.67-99.934z" fill="#2ecefb"/><path d="m183.307 206.829-65.833 97.884-78.703-168.927c1.27-2.91 2.88-5.68 4.79-8.21l152.416-20.681c-8.67 32.021-13 65.762-12.67 99.934z" fill="#00bdfd"/></g><g><path d="m484.046 360.373v-208.725c-.017-6.776-1.462-13.355-4.198-19.374-4.094-9.005-10.785-16.567-19.444-21.576l-90.111-52.026c-3.59-2.071-8.175-.843-10.246 2.745-2.071 3.587-.842 8.174 2.745 10.246l77.007 44.46-176.3-23.922.001-76.292c2.995.712 5.911 1.84 8.642 3.417l60.31 34.82c3.587 2.069 8.174.842 10.246-2.745 2.071-3.587.842-8.174-2.745-10.246l-60.31-34.82c-7.3-4.245-15.448-6.224-23.643-6.335-8.194.111-16.344 2.09-23.643 6.335l-180.761 104.363c-8.659 5.008-15.35 12.571-19.444 21.576-2.736 6.019-4.181 12.598-4.198 19.374v208.725c.009 8.014 2.056 15.741 5.795 22.591 4.106 7.522 10.205 13.946 17.847 18.358l180.761 104.363c7.291 4.207 15.379 6.315 23.643 6.315s16.352-2.108 23.643-6.315l180.761-104.363c7.969-4.603 14.256-11.366 18.363-19.321 3.402-6.592 5.279-13.989 5.279-21.628zm-227.888 136.628c-.105 0-.211 0-.316 0l-124.282-184.788h46.579c4.143 0 7.5-3.358 7.5-7.5 0-4.143-3.358-7.5-7.5-7.5h-46.577l124.438-185.021 124.439 185.021h-167.299c-4.143 0-7.5 3.358-7.5 7.5 0 4.143 3.358 7.5 7.5 7.5h167.298zm-213.204-136.628v-197.84l65.458 140.481-65.049 62.358c-.26-1.642-.409-3.31-.409-4.999zm4.135-224.483c.252-.451.52-.892.793-1.33l192.568-26.13-121.784 181.075zm346.243 153.615-121.784-181.074 192.57 26.13c.274.438.541.879.793 1.33zm75.714-126.973v197.841c0 1.689-.149 3.357-.408 4.999l-65.051-62.359zm-229.188-143.206c2.731-1.577 5.647-2.705 8.642-3.417l-.001 76.292-176.299 23.922zm-190.167 360.76 66.539-63.787 115.469 171.685-172.602-99.652c-3.698-2.135-6.873-4.956-9.406-8.246zm403.212 8.246-172.604 99.653 115.469-171.686 66.541 63.787c-2.533 3.29-5.708 6.111-9.406 8.246z"/><path d="m391.201 145.924h-13.926c-4.143 0-7.5 3.358-7.5 7.5s3.358 7.5 7.5 7.5h6.426v57.655c0 4.143 3.358 7.5 7.5 7.5 4.143 0 7.5-3.358 7.5-7.5v-65.155c0-4.143-3.358-7.5-7.5-7.5z"/><path d="m119.823 225.446c3.701 1.653 8.216-.017 9.885-3.848l28.642-65.155c1.02-2.319.799-4.997-.586-7.118s-3.747-3.401-6.281-3.401h-35.843c-4.143 0-7.5 3.358-7.5 7.5s3.358 7.5 7.5 7.5h24.354l-24.019 54.636c-1.667 3.793.056 8.218 3.848 9.886z"/><path d="m280.172 373.6c0-13.329-10.844-24.173-24.173-24.173-11.526 0-21.5 8.2-23.718 19.497-.798 4.065 1.851 8.006 5.915 8.804 4.065.797 8.006-1.851 8.804-5.915.84-4.279 4.624-7.385 8.998-7.385 5.058 0 9.172 4.114 9.172 9.172 0 5.057-4.114 9.171-9.172 9.171-4.143 0-7.5 3.358-7.5 7.5 0 4.143 3.358 7.5 7.5 7.5 5.058 0 9.172 4.114 9.172 9.172 0 5.057-4.114 9.171-9.172 9.171-4.551 0-8.455-3.389-9.082-7.885-.059-.421-.089-.854-.089-1.286 0-4.143-3.358-7.5-7.5-7.5s-7.5 3.358-7.5 7.5c0 1.125.078 2.257.233 3.361 1.654 11.864 11.946 20.81 23.938 20.81 13.329 0 24.173-10.843 24.173-24.172 0-6.46-2.552-12.331-6.695-16.672 4.144-4.339 6.696-10.21 6.696-16.67z"/><path d="m256 266.455c14.524 0 26.341-11.817 26.341-26.341 0-14.525-11.817-26.342-26.341-26.342-.851 0-1.693.044-2.524.124 5.452-8.635 11.383-13.257 11.566-13.397 3.303-2.477 3.985-7.16 1.518-10.476-2.472-3.324-7.172-4.015-10.494-1.542-.638-.843-26.292 23.526-26.408 51.633 0 14.524 11.817 26.341 26.342 26.341zm11.34-26.341c0 6.253-5.087 11.34-11.34 11.34s-11.341-5.087-11.341-11.34 5.088-11.341 11.341-11.341 11.34 5.088 11.34 11.341z"/></g></g></svg>